999
"DXF R12 Output" (www.mydxf.blogspot.com)
 0 
SECTION
 2 
HEADER
 9 
$ACADVER
 1 
AC1009
 9 
$EXTMIN
 10 
 0 
 20 
 0 
 9 
$EXTMAX
 10 
 8.5 
 20 
 11 
 0 
ENDSEC
 0 
SECTION
 2 
ENTITIES
0
LINE
8
Layer 1
10
16.968500
20
2.241940
11
17.512616
21
3.010543
0
LINE
8
Layer 1
10
17.512616
20
3.010543
11
16.237346
21
3.210664
0
LINE
8
Layer 1
10
16.237346
20
3.210664
11
15.119543
21
3.396324
0
LINE
8
Layer 1
10
15.119543
20
3.396324
11
14.692793
21
3.647131
0
LINE
8
Layer 1
10
14.692793
20
3.647131
11
14.972186
21
3.910432
0
LINE
8
Layer 1
10
14.972186
20
3.910432
11
15.972811
21
4.133575
0
LINE
8
Layer 1
10
15.972811
20
4.133575
11
16.891517
21
4.372007
0
LINE
8
Layer 1
10
16.891517
20
4.372007
11
16.358264
21
4.786972
0
LINE
8
Layer 1
10
16.358264
20
4.786972
11
15.835367
21
5.096998
0
LINE
8
Layer 1
10
15.835367
20
5.096998
11
15.792690
21
5.301903
0
LINE
8
Layer 1
10
15.792690
20
5.301903
11
17.160175
21
5.405738
0
LINE
8
Layer 1
10
17.160175
20
5.405738
11
18.571625
21
5.414007
0
LINE
8
Layer 1
10
18.571625
20
5.414007
11
17.777272
21
6.592417
0
LINE
8
Layer 1
10
17.777272
20
6.592417
11
17.040798
21
7.769110
0
LINE
8
Layer 1
10
17.040798
20
7.769110
11
17.018334
21
8.011672
0
LINE
8
Layer 1
10
17.018334
20
8.011672
11
17.203870
21
8.082207
0
LINE
8
Layer 1
10
17.203870
20
8.082207
11
18.044471
21
7.704867
0
LINE
8
Layer 1
10
18.044471
20
7.704867
11
19.071990
21
6.961647
0
LINE
8
Layer 1
10
19.071990
20
6.961647
11
19.484556
21
6.583204
0
LINE
8
Layer 1
10
19.484556
20
6.583204
11
19.387435
21
7.200711
0
LINE
8
Layer 1
10
19.387435
20
7.200711
11
19.093583
21
9.329491
0
LINE
8
Layer 1
10
19.093583
20
9.329491
11
18.761933
21
11.059061
0
LINE
8
Layer 1
10
18.761933
20
11.059061
11
17.940650
21
11.177355
0
LINE
8
Layer 1
10
17.940650
20
11.177355
11
15.114603
21
11.003582
0
LINE
8
Layer 1
10
15.114603
20
11.003582
11
9.176263
21
10.729570
0
LINE
8
Layer 1
10
9.176263
20
10.729570
11
7.063910
21
10.780843
0
LINE
8
Layer 1
10
7.063910
20
10.780843
11
6.790872
21
10.898889
0
LINE
8
Layer 1
10
6.790872
20
10.898889
11
6.747043
21
11.126323
0
LINE
8
Layer 1
10
6.747043
20
11.126323
11
6.392030
21
16.286923
0
LINE
8
Layer 1
10
6.392030
20
16.286923
11
5.937822
21
24.843813
0
LINE
8
Layer 1
10
5.937822
20
24.843813
11
5.792818
21
27.940048
0
LINE
8
Layer 1
10
5.792818
20
27.940048
11
5.569442
21
29.751503
0
LINE
8
Layer 1
10
5.569442
20
29.751503
11
5.365327
21
30.925653
0
LINE
8
Layer 1
10
5.365327
20
30.925653
11
8.184632
21
31.203711
0
LINE
8
Layer 1
10
8.184632
20
31.203711
11
13.349207
21
31.476991
0
LINE
8
Layer 1
10
13.349207
20
31.476991
11
17.583547
21
31.705611
0
LINE
8
Layer 1
10
17.583547
20
31.705611
11
18.338268
21
31.876666
0
LINE
8
Layer 1
10
18.338268
20
31.876666
11
18.426965
21
32.393448
0
LINE
8
Layer 1
10
18.426965
20
32.393448
11
18.448444
21
33.518568
0
LINE
8
Layer 1
10
18.448444
20
33.518568
11
18.565175
21
33.989365
0
LINE
8
Layer 1
10
18.565175
20
33.989365
11
18.871926
21
34.106677
0
LINE
8
Layer 1
10
18.871926
20
34.106677
11
19.463465
21
34.171338
0
LINE
8
Layer 1
10
19.463465
20
34.171338
11
21.152820
21
34.335631
0
LINE
8
Layer 1
10
21.152820
20
34.335631
11
22.469475
21
34.366430
0
LINE
8
Layer 1
10
22.469475
20
34.366430
11
22.739593
21
33.884351
0
LINE
8
Layer 1
10
22.739593
20
33.884351
11
22.805539
21
32.923820
0
LINE
8
Layer 1
10
22.805539
20
32.923820
11
22.805500
21
32.029600
0
LINE
8
Layer 1
10
22.805500
20
32.029600
11
27.083950
21
32.144013
0
LINE
8
Layer 1
10
27.083950
20
32.144013
11
34.626360
21
32.366339
0
LINE
8
Layer 1
10
34.626360
20
32.366339
11
37.890330
21
32.474252
0
LINE
8
Layer 1
10
37.890330
20
32.474252
11
37.890400
21
22.263400
0
LINE
8
Layer 1
10
37.890400
20
22.263400
11
37.890400
21
12.052600
0
LINE
8
Layer 1
10
37.890400
20
12.052600
11
31.274250
21
11.932565
0
LINE
8
Layer 1
10
31.274250
20
11.932565
11
23.953450
21
11.660241
0
LINE
8
Layer 1
10
23.953450
20
11.660241
11
23.332982
21
11.415036
0
LINE
8
Layer 1
10
23.332982
20
11.415036
11
23.133894
21
10.704615
0
LINE
8
Layer 1
10
23.133894
20
10.704615
11
22.888381
21
8.154045
0
LINE
8
Layer 1
10
22.888381
20
8.154045
11
22.757780
21
6.406825
0
LINE
8
Layer 1
10
22.757780
20
6.406825
11
23.820900
21
7.509515
0
LINE
8
Layer 1
10
23.820900
20
7.509515
11
25.079810
21
8.612205
0
LINE
8
Layer 1
10
25.079810
20
8.612205
11
25.226135
21
8.533249
0
LINE
8
Layer 1
10
25.226135
20
8.533249
11
25.266250
21
8.316385
0
LINE
8
Layer 1
10
25.266250
20
8.316385
11
25.033306
21
7.588965
0
LINE
8
Layer 1
10
25.033306
20
7.588965
11
24.675954
21
6.738884
0
LINE
8
Layer 1
10
24.675954
20
6.738884
11
24.560895
21
6.365228
0
LINE
8
Layer 1
10
24.560895
20
6.365228
11
25.795715
21
6.728868
0
LINE
8
Layer 1
10
25.795715
20
6.728868
11
27.162165
21
6.960883
0
LINE
8
Layer 1
10
27.162165
20
6.960883
11
27.076297
21
6.728136
0
LINE
8
Layer 1
10
27.076297
20
6.728136
11
26.685007
21
6.353392
0
LINE
8
Layer 1
10
26.685007
20
6.353392
11
25.631807
21
5.470190
0
LINE
8
Layer 1
10
25.631807
20
5.470190
11
25.187392
21
5.062853
0
LINE
8
Layer 1
10
25.187392
20
5.062853
11
26.334192
21
5.164103
0
LINE
8
Layer 1
10
26.334192
20
5.164103
11
27.646780
21
5.131636
0
LINE
8
Layer 1
10
27.646780
20
5.131636
11
27.866724
21
4.995443
0
LINE
8
Layer 1
10
27.866724
20
4.995443
11
27.720362
21
4.799131
0
LINE
8
Layer 1
10
27.720362
20
4.799131
11
26.695862
21
4.282600
0
LINE
8
Layer 1
10
26.695862
20
4.282600
11
25.910735
21
3.918209
0
LINE
8
Layer 1
10
25.910735
20
3.918209
11
26.916405
21
3.510045
0
LINE
8
Layer 1
10
26.916405
20
3.510045
11
27.565801
21
3.186210
0
LINE
8
Layer 1
10
27.565801
20
3.186210
11
27.886692
21
2.898448
0
LINE
8
Layer 1
10
27.886692
20
2.898448
11
27.852558
21
2.692423
0
LINE
8
Layer 1
10
27.852558
20
2.692423
11
27.436882
21
2.613804
0
LINE
8
Layer 1
10
27.436882
20
2.613804
11
25.452042
21
2.878207
0
LINE
8
Layer 1
10
25.452042
20
2.878207
11
23.559192
21
3.142610
0
LINE
8
Layer 1
10
23.559192
20
3.142610
11
23.261650
21
3.071727
0
LINE
8
Layer 1
10
23.261650
20
3.071727
11
23.367315
21
2.701034
0
LINE
8
Layer 1
10
23.367315
20
2.701034
11
23.483938
21
2.333840
0
LINE
8
Layer 1
10
23.483938
20
2.333840
11
23.399120
21
2.141577
0
LINE
8
Layer 1
10
23.399120
20
2.141577
11
22.527908
21
2.226912
0
LINE
8
Layer 1
10
22.527908
20
2.226912
11
21.786862
21
2.344269
0
LINE
8
Layer 1
10
21.786862
20
2.344269
11
21.327458
21
1.969071
0
LINE
8
Layer 1
10
21.327458
20
1.969071
11
20.766711
21
1.626891
0
LINE
8
Layer 1
10
20.766711
20
1.626891
11
20.582017
21
1.729755
0
LINE
8
Layer 1
10
20.582017
20
1.729755
11
20.511975
21
2.012547
0
LINE
8
Layer 1
10
20.511975
20
2.012547
11
20.329419
21
2.200037
0
LINE
8
Layer 1
10
20.329419
20
2.200037
11
19.585714
21
2.163677
0
LINE
8
Layer 1
10
19.585714
20
2.163677
11
17.750144
21
1.804739
0
LINE
8
Layer 1
10
17.750144
20
1.804739
11
16.639515
21
1.602337
0
LINE
8
Layer 1
10
16.639515
20
1.602337
11
16.651195
21
1.801733
0
LINE
8
Layer 1
10
16.651195
20
1.801733
11
16.968536
21
2.241991
0
LINE
8
Layer 1
10
16.968536
20
2.241991
11
16.968500
21
2.241940
0
LINE
8
Layer 1
10
27.542900
20
103.415000
11
26.295200
21
98.782200
0
LINE
8
Layer 1
10
26.295200
20
98.782200
11
24.972900
21
98.782200
0
LINE
8
Layer 1
10
24.972900
20
98.782200
11
24.142200
21
101.800000
0
LINE
8
Layer 1
10
24.142200
20
101.800000
11
23.333300
21
98.782200
0
LINE
8
Layer 1
10
23.333300
20
98.782200
11
22.011000
21
98.782200
0
LINE
8
Layer 1
10
22.011000
20
98.782200
11
20.763300
21
103.415000
0
LINE
8
Layer 1
10
20.763300
20
103.415000
11
22.011000
21
103.415000
0
LINE
8
Layer 1
10
22.011000
20
103.415000
11
22.723489
21
100.225910
0
LINE
8
Layer 1
10
22.723489
20
100.225910
11
23.575987
21
103.415000
0
LINE
8
Layer 1
10
23.575987
20
103.415000
11
24.767600
21
103.415000
0
LINE
8
Layer 1
10
24.767600
20
103.415000
11
25.579651
21
100.225910
0
LINE
8
Layer 1
10
25.579651
20
100.225910
11
26.326364
21
103.415000
0
LINE
8
Layer 1
10
26.326364
20
103.415000
11
27.542900
21
103.415000
0
LINE
8
Layer 1
10
31.721300
20
100.322000
11
29.157600
21
100.322000
0
LINE
8
Layer 1
10
29.157600
20
100.322000
11
29.247829
21
99.959533
0
LINE
8
Layer 1
10
29.247829
20
99.959533
11
29.468730
21
99.693517
0
LINE
8
Layer 1
10
29.468730
20
99.693517
11
30.318117
21
99.475723
0
LINE
8
Layer 1
10
30.318117
20
99.475723
11
31.005717
21
99.603287
0
LINE
8
Layer 1
10
31.005717
20
99.603287
11
31.531528
21
99.877082
0
LINE
8
Layer 1
10
31.531528
20
99.877082
11
31.656000
21
99.877400
0
LINE
8
Layer 1
10
31.656000
20
99.877400
11
31.656000
21
98.978200
0
LINE
8
Layer 1
10
31.656000
20
98.978200
11
30.940401
21
98.757299
0
LINE
8
Layer 1
10
30.940401
20
98.757299
11
30.196797
21
98.688849
0
LINE
8
Layer 1
10
30.196797
20
98.688849
11
29.268074
21
98.807079
0
LINE
8
Layer 1
10
29.268074
20
98.807079
11
28.585147
21
99.161768
0
LINE
8
Layer 1
10
28.585147
20
99.161768
11
28.165121
21
99.735026
0
LINE
8
Layer 1
10
28.165121
20
99.735026
11
28.025112
21
100.508968
0
LINE
8
Layer 1
10
28.025112
20
100.508968
11
28.157342
21
101.283681
0
LINE
8
Layer 1
10
28.157342
20
101.283681
11
28.554032
21
101.877938
0
LINE
8
Layer 1
10
28.554032
20
101.877938
11
29.184071
21
102.258294
0
LINE
8
Layer 1
10
29.184071
20
102.258294
11
30.010122
21
102.385080
0
LINE
8
Layer 1
10
30.010122
20
102.385080
11
30.756837
21
102.276962
0
LINE
8
Layer 1
10
30.756837
20
102.276962
11
31.291982
21
101.952609
0
LINE
8
Layer 1
10
31.291982
20
101.952609
11
31.614003
21
101.428354
0
LINE
8
Layer 1
10
31.614003
20
101.428354
11
31.721343
21
100.714309
0
LINE
8
Layer 1
10
31.721343
20
100.714309
11
31.721300
21
100.322000
0
LINE
8
Layer 1
10
30.607450
20
100.978484
11
30.433217
21
101.507406
0
LINE
8
Layer 1
10
30.433217
20
101.507406
11
29.919852
21
101.684750
0
LINE
8
Layer 1
10
29.919852
20
101.684750
11
29.387818
21
101.516740
0
LINE
8
Layer 1
10
29.387818
20
101.516740
11
29.154471
21
100.978484
0
LINE
8
Layer 1
10
29.154471
20
100.978484
11
30.607450
21
100.978484
0
LINE
8
Layer 1
10
33.631700
20
98.782200
11
32.511600
21
98.782200
0
LINE
8
Layer 1
10
32.511600
20
98.782200
11
32.511600
21
103.623000
0
LINE
8
Layer 1
10
32.511600
20
103.623000
11
33.631700
21
103.623000
0
LINE
8
Layer 1
10
33.631700
20
103.623000
11
33.631700
21
98.782200
0
LINE
8
Layer 1
10
36.509600
20
98.688900
11
35.672659
21
98.797795
0
LINE
8
Layer 1
10
35.672659
20
98.797795
11
35.016174
21
99.133817
0
LINE
8
Layer 1
10
35.016174
20
99.133817
11
34.586813
21
99.706296
0
LINE
8
Layer 1
10
34.586813
20
99.706296
11
34.434359
21
100.515235
0
LINE
8
Layer 1
10
34.434359
20
100.515235
11
34.596148
21
101.358400
0
LINE
8
Layer 1
10
34.596148
20
101.358400
11
35.053509
21
101.946437
0
LINE
8
Layer 1
10
35.053509
20
101.946437
11
35.706884
21
102.270012
0
LINE
8
Layer 1
10
35.706884
20
102.270012
11
36.475375
21
102.372685
0
LINE
8
Layer 1
10
36.475375
20
102.372685
11
37.134973
21
102.294902
0
LINE
8
Layer 1
10
37.134973
20
102.294902
11
37.698119
21
102.092667
0
LINE
8
Layer 1
10
37.698119
20
102.092667
11
37.698200
21
101.137000
0
LINE
8
Layer 1
10
37.698200
20
101.137000
11
37.539500
21
101.137000
0
LINE
8
Layer 1
10
37.539500
20
101.137000
11
37.380824
21
101.267675
0
LINE
8
Layer 1
10
37.380824
20
101.267675
11
37.156810
21
101.413906
0
LINE
8
Layer 1
10
37.156810
20
101.413906
11
36.876792
21
101.525913
0
LINE
8
Layer 1
10
36.876792
20
101.525913
11
36.522104
21
101.572583
0
LINE
8
Layer 1
10
36.522104
20
101.572583
11
36.125413
21
101.501023
0
LINE
8
Layer 1
10
36.125413
20
101.501023
11
35.831394
21
101.286343
0
LINE
8
Layer 1
10
35.831394
20
101.286343
11
35.591824
21
100.514738
0
LINE
8
Layer 1
10
35.591824
20
100.514738
11
35.653272
21
100.071378
0
LINE
8
Layer 1
10
35.653272
20
100.071378
11
35.837617
21
99.749358
0
LINE
8
Layer 1
10
35.837617
20
99.749358
11
36.137857
21
99.553346
0
LINE
8
Layer 1
10
36.137857
20
99.553346
11
36.540770
21
99.488009
0
LINE
8
Layer 1
10
36.540770
20
99.488009
11
36.920350
21
99.534680
0
LINE
8
Layer 1
10
36.920350
20
99.534680
11
37.203478
21
99.649796
0
LINE
8
Layer 1
10
37.203478
20
99.649796
11
37.390157
21
99.780473
0
LINE
8
Layer 1
10
37.390157
20
99.780473
11
37.539500
21
99.914258
0
LINE
8
Layer 1
10
37.539500
20
99.914258
11
37.698200
21
99.914700
0
LINE
8
Layer 1
10
37.698200
20
99.914700
11
37.698200
21
98.959600
0
LINE
8
Layer 1
10
37.698200
20
98.959600
11
37.144387
21
98.763586
0
LINE
8
Layer 1
10
37.144387
20
98.763586
11
36.509681
21
98.688916
0
LINE
8
Layer 1
10
36.509681
20
98.688916
11
36.509600
21
98.688900
0
LINE
8
Layer 1
10
42.007300
20
100.528000
11
41.881292
21
99.757175
0
LINE
8
Layer 1
10
41.881292
20
99.757175
11
41.503268
21
99.168360
0
LINE
8
Layer 1
10
41.503268
20
99.168360
11
40.900453
21
98.797337
0
LINE
8
Layer 1
10
40.900453
20
98.797337
11
40.093848
21
98.673662
0
LINE
8
Layer 1
10
40.093848
20
98.673662
11
39.286465
21
98.797337
0
LINE
8
Layer 1
10
39.286465
20
98.797337
11
38.681318
21
99.168360
0
LINE
8
Layer 1
10
38.681318
20
99.168360
11
38.305629
21
99.757175
0
LINE
8
Layer 1
10
38.305629
20
99.757175
11
38.180399
21
100.528000
0
LINE
8
Layer 1
10
38.180399
20
100.528000
11
38.306407
21
101.302715
0
LINE
8
Layer 1
10
38.306407
20
101.302715
11
38.684431
21
101.890750
0
LINE
8
Layer 1
10
38.684431
20
101.890750
11
39.290357
21
102.261773
0
LINE
8
Layer 1
10
39.290357
20
102.261773
11
40.093851
21
102.385447
0
LINE
8
Layer 1
10
40.093851
20
102.385447
11
40.904345
21
102.260995
0
LINE
8
Layer 1
10
40.904345
20
102.260995
11
41.506381
21
101.887638
0
LINE
8
Layer 1
10
41.506381
20
101.887638
11
41.882072
21
101.298823
0
LINE
8
Layer 1
10
41.882072
20
101.298823
11
42.007302
21
100.527998
0
LINE
8
Layer 1
10
42.007302
20
100.527998
11
42.007300
21
100.528000
0
LINE
8
Layer 1
10
40.628990
20
99.678613
11
40.790777
21
99.999079
0
LINE
8
Layer 1
10
40.790777
20
99.999079
11
40.846781
21
100.521777
0
LINE
8
Layer 1
10
40.846781
20
100.521777
11
40.790777
21
101.038255
0
LINE
8
Layer 1
10
40.790777
20
101.038255
11
40.635211
21
101.371165
0
LINE
8
Layer 1
10
40.635211
20
101.371165
11
40.395641
21
101.551621
0
LINE
8
Layer 1
10
40.395641
20
101.551621
11
40.093844
21
101.604513
0
LINE
8
Layer 1
10
40.093844
20
101.604513
11
39.804493
21
101.560955
0
LINE
8
Layer 1
10
39.804493
20
101.560955
11
39.564923
21
101.386722
0
LINE
8
Layer 1
10
39.564923
20
101.386722
11
39.400024
21
101.053812
0
LINE
8
Layer 1
10
39.400024
20
101.053812
11
39.340910
21
100.521778
0
LINE
8
Layer 1
10
39.340910
20
100.521778
11
39.393801
21
100.023969
0
LINE
8
Layer 1
10
39.393801
20
100.023969
11
39.549367
21
99.687950
0
LINE
8
Layer 1
10
39.549367
20
99.687950
11
39.785827
21
99.510605
0
LINE
8
Layer 1
10
39.785827
20
99.510605
11
40.103180
21
99.454601
0
LINE
8
Layer 1
10
40.103180
20
99.454601
11
40.392531
21
99.504382
0
LINE
8
Layer 1
10
40.392531
20
99.504382
11
40.628991
21
99.678615
0
LINE
8
Layer 1
10
40.628991
20
99.678615
11
40.628990
21
99.678613
0
LINE
8
Layer 1
10
46.232500
20
101.259000
11
46.232500
21
98.782200
0
LINE
8
Layer 1
10
46.232500
20
98.782200
11
45.106200
21
98.782200
0
LINE
8
Layer 1
10
45.106200
20
98.782200
11
45.106200
21
100.528000
0
LINE
8
Layer 1
10
45.106200
20
100.528000
11
45.093754
21
100.960472
0
LINE
8
Layer 1
10
45.093754
20
100.960472
11
45.025307
21
101.252935
0
LINE
8
Layer 1
10
45.025307
20
101.252935
11
44.854185
21
101.414723
0
LINE
8
Layer 1
10
44.854185
20
101.414723
11
44.536832
21
101.467615
0
LINE
8
Layer 1
10
44.536832
20
101.467615
11
44.216366
21
101.399167
0
LINE
8
Layer 1
10
44.216366
20
101.399167
11
43.936351
21
101.259158
0
LINE
8
Layer 1
10
43.936351
20
101.259158
11
43.936300
21
98.782200
0
LINE
8
Layer 1
10
43.936300
20
98.782200
11
42.816300
21
98.782200
0
LINE
8
Layer 1
10
42.816300
20
98.782200
11
42.816300
21
102.276000
0
LINE
8
Layer 1
10
42.816300
20
102.276000
11
43.936300
21
102.276000
0
LINE
8
Layer 1
10
43.936300
20
102.276000
11
43.936300
21
101.890000
0
LINE
8
Layer 1
10
43.936300
20
101.890000
11
44.490110
21
102.244689
0
LINE
8
Layer 1
10
44.490110
20
102.244689
11
45.075038
21
102.372252
0
LINE
8
Layer 1
10
45.075038
20
102.372252
11
45.684852
21
102.216687
0
LINE
8
Layer 1
10
45.684852
20
102.216687
11
46.098657
21
101.765548
0
LINE
8
Layer 1
10
46.098657
20
101.765548
11
46.752029
21
102.210464
0
LINE
8
Layer 1
10
46.752029
20
102.210464
11
47.374292
21
102.372252
0
LINE
8
Layer 1
10
47.374292
20
102.372252
11
47.872100
21
102.287469
0
LINE
8
Layer 1
10
47.872100
20
102.287469
11
48.233012
21
102.033120
0
LINE
8
Layer 1
10
48.233012
20
102.033120
11
48.454692
21
101.619316
0
LINE
8
Layer 1
10
48.454692
20
101.619316
11
48.528586
21
101.056170
0
LINE
8
Layer 1
10
48.528586
20
101.056170
11
48.528600
21
98.782200
0
LINE
8
Layer 1
10
48.528600
20
98.782200
11
47.402300
21
98.782200
0
LINE
8
Layer 1
10
47.402300
20
98.782200
11
47.402300
21
100.528000
0
LINE
8
Layer 1
10
47.402300
20
100.528000
11
47.389854
21
100.963583
0
LINE
8
Layer 1
10
47.389854
20
100.963583
11
47.324517
21
101.252934
0
LINE
8
Layer 1
10
47.324517
20
101.252934
11
47.156505
21
101.414722
0
LINE
8
Layer 1
10
47.156505
20
101.414722
11
46.832932
21
101.467614
0
LINE
8
Layer 1
10
46.832932
20
101.467614
11
46.559137
21
101.417834
0
LINE
8
Layer 1
10
46.559137
20
101.417834
11
46.232448
21
101.259158
0
LINE
8
Layer 1
10
46.232448
20
101.259158
11
46.232500
21
101.259000
0
LINE
8
Layer 1
10
53.002700
20
100.322000
11
50.439000
21
100.322000
0
LINE
8
Layer 1
10
50.439000
20
100.322000
11
50.529229
21
99.959533
0
LINE
8
Layer 1
10
50.529229
20
99.959533
11
50.750130
21
99.693517
0
LINE
8
Layer 1
10
50.750130
20
99.693517
11
51.599517
21
99.475723
0
LINE
8
Layer 1
10
51.599517
20
99.475723
11
52.287114
21
99.603287
0
LINE
8
Layer 1
10
52.287114
20
99.603287
11
52.812925
21
99.877082
0
LINE
8
Layer 1
10
52.812925
20
99.877082
11
52.937300
21
99.877400
0
LINE
8
Layer 1
10
52.937300
20
99.877400
11
52.937300
21
98.978200
0
LINE
8
Layer 1
10
52.937300
20
98.978200
11
52.221701
21
98.757299
0
LINE
8
Layer 1
10
52.221701
20
98.757299
11
51.478100
21
98.688849
0
LINE
8
Layer 1
10
51.478100
20
98.688849
11
50.549375
21
98.807079
0
LINE
8
Layer 1
10
50.549375
20
98.807079
11
49.866440
21
99.161768
0
LINE
8
Layer 1
10
49.866440
20
99.161768
11
49.446415
21
99.735026
0
LINE
8
Layer 1
10
49.446415
20
99.735026
11
49.306407
21
100.508968
0
LINE
8
Layer 1
10
49.306407
20
100.508968
11
49.438637
21
101.283681
0
LINE
8
Layer 1
10
49.438637
20
101.283681
11
49.835328
21
101.877938
0
LINE
8
Layer 1
10
49.835328
20
101.877938
11
50.465367
21
102.258294
0
LINE
8
Layer 1
10
50.465367
20
102.258294
11
51.291418
21
102.385080
0
LINE
8
Layer 1
10
51.291418
20
102.385080
11
52.038132
21
102.276962
0
LINE
8
Layer 1
10
52.038132
20
102.276962
11
52.573278
21
101.952609
0
LINE
8
Layer 1
10
52.573278
20
101.952609
11
52.895299
21
101.428354
0
LINE
8
Layer 1
10
52.895299
20
101.428354
11
53.002639
21
100.714309
0
LINE
8
Layer 1
10
53.002639
20
100.714309
11
53.002700
21
100.322000
0
LINE
8
Layer 1
10
51.888850
20
100.978484
11
51.714617
21
101.507406
0
LINE
8
Layer 1
10
51.714617
20
101.507406
11
51.201252
21
101.684750
0
LINE
8
Layer 1
10
51.201252
20
101.684750
11
50.669218
21
101.516740
0
LINE
8
Layer 1
10
50.669218
20
101.516740
11
50.435868
21
100.978484
0
LINE
8
Layer 1
10
50.435868
20
100.978484
11
51.888850
21
100.978484
0
LINE
8
Layer 1
10
30.025700
20
90.817300
11
28.830900
21
90.817300
0
LINE
8
Layer 1
10
28.830900
20
90.817300
11
28.830900
21
92.858300
0
LINE
8
Layer 1
10
28.830900
20
92.858300
11
27.066800
21
92.858300
0
LINE
8
Layer 1
10
27.066800
20
92.858300
11
27.066800
21
90.817300
0
LINE
8
Layer 1
10
27.066800
20
90.817300
11
25.872100
21
90.817300
0
LINE
8
Layer 1
10
25.872100
20
90.817300
11
25.872100
21
95.450000
0
LINE
8
Layer 1
10
25.872100
20
95.450000
11
27.066800
21
95.450000
0
LINE
8
Layer 1
10
27.066800
20
95.450000
11
27.066800
21
93.754300
0
LINE
8
Layer 1
10
27.066800
20
93.754300
11
28.830900
21
93.754300
0
LINE
8
Layer 1
10
28.830900
20
93.754300
11
28.830900
21
95.450000
0
LINE
8
Layer 1
10
28.830900
20
95.450000
11
30.025700
21
95.450000
0
LINE
8
Layer 1
10
30.025700
20
95.450000
11
30.025700
21
90.817300
0
LINE
8
Layer 1
10
34.720600
20
92.562700
11
34.594592
21
91.791874
0
LINE
8
Layer 1
10
34.594592
20
91.791874
11
34.216568
21
91.203060
0
LINE
8
Layer 1
10
34.216568
20
91.203060
11
33.613754
21
90.832038
0
LINE
8
Layer 1
10
33.613754
20
90.832038
11
32.807148
21
90.708364
0
LINE
8
Layer 1
10
32.807148
20
90.708364
11
31.999765
21
90.832038
0
LINE
8
Layer 1
10
31.999765
20
90.832038
11
31.394618
21
91.203060
0
LINE
8
Layer 1
10
31.394618
20
91.203060
11
31.018927
21
91.791875
0
LINE
8
Layer 1
10
31.018927
20
91.791875
11
30.893697
21
92.562700
0
LINE
8
Layer 1
10
30.893697
20
92.562700
11
31.019705
21
93.337414
0
LINE
8
Layer 1
10
31.019705
20
93.337414
11
31.397729
21
93.925450
0
LINE
8
Layer 1
10
31.397729
20
93.925450
11
32.003655
21
94.296474
0
LINE
8
Layer 1
10
32.003655
20
94.296474
11
32.807149
21
94.420148
0
LINE
8
Layer 1
10
32.807149
20
94.420148
11
33.617643
21
94.295696
0
LINE
8
Layer 1
10
33.617643
20
94.295696
11
34.219679
21
93.922339
0
LINE
8
Layer 1
10
34.219679
20
93.922339
11
34.595368
21
93.333525
0
LINE
8
Layer 1
10
34.595368
20
93.333525
11
34.720598
21
92.562699
0
LINE
8
Layer 1
10
34.720598
20
92.562699
11
34.720600
21
92.562700
0
LINE
8
Layer 1
10
33.342290
20
91.713313
11
33.504077
21
92.033779
0
LINE
8
Layer 1
10
33.504077
20
92.033779
11
33.560081
21
92.556477
0
LINE
8
Layer 1
10
33.560081
20
92.556477
11
33.504077
21
93.072955
0
LINE
8
Layer 1
10
33.504077
20
93.072955
11
33.348513
21
93.405864
0
LINE
8
Layer 1
10
33.348513
20
93.405864
11
33.108943
21
93.586320
0
LINE
8
Layer 1
10
33.108943
20
93.586320
11
32.807146
21
93.639211
0
LINE
8
Layer 1
10
32.807146
20
93.639211
11
32.517792
21
93.595653
0
LINE
8
Layer 1
10
32.517792
20
93.595653
11
32.278222
21
93.421420
0
LINE
8
Layer 1
10
32.278222
20
93.421420
11
32.113323
21
93.088511
0
LINE
8
Layer 1
10
32.113323
20
93.088511
11
32.054209
21
92.556477
0
LINE
8
Layer 1
10
32.054209
20
92.556477
11
32.107103
21
92.058668
0
LINE
8
Layer 1
10
32.107103
20
92.058668
11
32.262667
21
91.722646
0
LINE
8
Layer 1
10
32.262667
20
91.722646
11
32.499127
21
91.545303
0
LINE
8
Layer 1
10
32.499127
20
91.545303
11
32.816480
21
91.489299
0
LINE
8
Layer 1
10
32.816480
20
91.489299
11
33.105831
21
91.539080
0
LINE
8
Layer 1
10
33.105831
20
91.539080
11
33.342291
21
91.713313
0
LINE
8
Layer 1
10
33.342291
20
91.713313
11
33.342290
21
91.713313
0
LINE
8
Layer 1
10
38.945800
20
93.293900
11
38.945800
21
90.817300
0
LINE
8
Layer 1
10
38.945800
20
90.817300
11
37.819500
21
90.817300
0
LINE
8
Layer 1
10
37.819500
20
90.817300
11
37.819500
21
92.562700
0
LINE
8
Layer 1
10
37.819500
20
92.562700
11
37.807054
21
92.995171
0
LINE
8
Layer 1
10
37.807054
20
92.995171
11
37.738607
21
93.287635
0
LINE
8
Layer 1
10
37.738607
20
93.287635
11
37.567485
21
93.449422
0
LINE
8
Layer 1
10
37.567485
20
93.449422
11
37.250132
21
93.502313
0
LINE
8
Layer 1
10
37.250132
20
93.502313
11
36.929666
21
93.433866
0
LINE
8
Layer 1
10
36.929666
20
93.433866
11
36.649651
21
93.293856
0
LINE
8
Layer 1
10
36.649651
20
93.293856
11
36.649700
21
90.817300
0
LINE
8
Layer 1
10
36.649700
20
90.817300
11
35.529600
21
90.817300
0
LINE
8
Layer 1
10
35.529600
20
90.817300
11
35.529600
21
94.311300
0
LINE
8
Layer 1
10
35.529600
20
94.311300
11
36.649700
21
94.311300
0
LINE
8
Layer 1
10
36.649700
20
94.311300
11
36.649700
21
93.925500
0
LINE
8
Layer 1
10
36.649700
20
93.925500
11
37.203510
21
94.280188
0
LINE
8
Layer 1
10
37.203510
20
94.280188
11
37.788438
21
94.407752
0
LINE
8
Layer 1
10
37.788438
20
94.407752
11
38.398252
21
94.252186
0
LINE
8
Layer 1
10
38.398252
20
94.252186
11
38.812057
21
93.801048
0
LINE
8
Layer 1
10
38.812057
20
93.801048
11
39.465429
21
94.245965
0
LINE
8
Layer 1
10
39.465429
20
94.245965
11
40.087692
21
94.407752
0
LINE
8
Layer 1
10
40.087692
20
94.407752
11
40.585500
21
94.322969
0
LINE
8
Layer 1
10
40.585500
20
94.322969
11
40.946412
21
94.068620
0
LINE
8
Layer 1
10
40.946412
20
94.068620
11
41.168092
21
93.654816
0
LINE
8
Layer 1
10
41.168092
20
93.654816
11
41.241986
21
93.091669
0
LINE
8
Layer 1
10
41.241986
20
93.091669
11
41.241900
21
90.817300
0
LINE
8
Layer 1
10
41.241900
20
90.817300
11
40.115600
21
90.817300
0
LINE
8
Layer 1
10
40.115600
20
90.817300
11
40.115600
21
92.562700
0
LINE
8
Layer 1
10
40.115600
20
92.562700
11
40.103154
21
92.998281
0
LINE
8
Layer 1
10
40.103154
20
92.998281
11
40.037817
21
93.287635
0
LINE
8
Layer 1
10
40.037817
20
93.287635
11
39.869805
21
93.449422
0
LINE
8
Layer 1
10
39.869805
20
93.449422
11
39.546229
21
93.502313
0
LINE
8
Layer 1
10
39.546229
20
93.502313
11
39.272434
21
93.452532
0
LINE
8
Layer 1
10
39.272434
20
93.452532
11
38.945748
21
93.293856
0
LINE
8
Layer 1
10
38.945748
20
93.293856
11
38.945800
21
93.293900
0
LINE
8
Layer 1
10
45.716000
20
92.357400
11
43.152300
21
92.357400
0
LINE
8
Layer 1
10
43.152300
20
92.357400
11
43.242528
21
91.994933
0
LINE
8
Layer 1
10
43.242528
20
91.994933
11
43.463430
21
91.728914
0
LINE
8
Layer 1
10
43.463430
20
91.728914
11
44.312817
21
91.511123
0
LINE
8
Layer 1
10
44.312817
20
91.511123
11
45.000414
21
91.638687
0
LINE
8
Layer 1
10
45.000414
20
91.638687
11
45.526225
21
91.912482
0
LINE
8
Layer 1
10
45.526225
20
91.912482
11
45.650700
21
91.912500
0
LINE
8
Layer 1
10
45.650700
20
91.912500
11
45.650700
21
91.013300
0
LINE
8
Layer 1
10
45.650700
20
91.013300
11
44.935101
21
90.792396
0
LINE
8
Layer 1
10
44.935101
20
90.792396
11
44.191500
21
90.723949
0
LINE
8
Layer 1
10
44.191500
20
90.723949
11
43.262775
21
90.842178
0
LINE
8
Layer 1
10
43.262775
20
90.842178
11
42.579840
21
91.196868
0
LINE
8
Layer 1
10
42.579840
20
91.196868
11
42.159815
21
91.770124
0
LINE
8
Layer 1
10
42.159815
20
91.770124
11
42.019807
21
92.544058
0
LINE
8
Layer 1
10
42.019807
20
92.544058
11
42.152037
21
93.318772
0
LINE
8
Layer 1
10
42.152037
20
93.318772
11
42.548728
21
93.913028
0
LINE
8
Layer 1
10
42.548728
20
93.913028
11
43.178768
21
94.293386
0
LINE
8
Layer 1
10
43.178768
20
94.293386
11
44.004818
21
94.420172
0
LINE
8
Layer 1
10
44.004818
20
94.420172
11
44.751532
21
94.312054
0
LINE
8
Layer 1
10
44.751532
20
94.312054
11
45.286678
21
93.987701
0
LINE
8
Layer 1
10
45.286678
20
93.987701
11
45.608697
21
93.463445
0
LINE
8
Layer 1
10
45.608697
20
93.463445
11
45.716036
21
92.749401
0
LINE
8
Layer 1
10
45.716036
20
92.749401
11
45.716000
21
92.357400
0
LINE
8
Layer 1
10
44.602150
20
93.013885
11
44.427917
21
93.542806
0
LINE
8
Layer 1
10
44.427917
20
93.542806
11
43.914552
21
93.720151
0
LINE
8
Layer 1
10
43.914552
20
93.720151
11
43.382518
21
93.552139
0
LINE
8
Layer 1
10
43.382518
20
93.552139
11
43.149168
21
93.013885
0
LINE
8
Layer 1
10
43.149168
20
93.013885
11
44.602150
21
93.013885
0
LINE
8
Layer 1
10
47.909500
20
95.450000
11
47.766380
21
92.152020
0
LINE
8
Layer 1
10
47.766380
20
92.152020
11
46.752100
21
92.152000
0
LINE
8
Layer 1
10
46.752100
20
92.152000
11
46.608982
21
95.449980
0
LINE
8
Layer 1
10
46.608982
20
95.449980
11
47.909500
21
95.450000
0
LINE
8
Layer 1
10
47.887712
20
90.817270
11
46.630700
21
90.817300
0
LINE
8
Layer 1
10
46.630700
20
90.817300
11
46.630700
21
91.638700
0
LINE
8
Layer 1
10
46.630700
20
91.638700
11
47.887700
21
91.638700
0
LINE
8
Layer 1
10
47.887700
20
91.638700
11
47.887712
21
90.817270
0
LINE
8
Layer 1
10
22.175100
20
29.833800
11
21.243008
21
30.054653
0
LINE
8
Layer 1
10
21.243008
20
30.054653
11
21.373676
21
29.105707
0
LINE
8
Layer 1
10
21.373676
20
29.105707
11
20.749411
21
29.832251
0
LINE
8
Layer 1
10
20.749411
20
29.832251
11
20.297348
21
28.987733
0
LINE
8
Layer 1
10
20.297348
20
28.987733
11
20.219359
21
29.942451
0
LINE
8
Layer 1
10
20.219359
20
29.942451
11
19.357237
21
29.524940
0
LINE
8
Layer 1
10
19.357237
20
29.524940
11
19.855313
21
30.343164
0
LINE
8
Layer 1
10
19.855313
20
30.343164
11
18.912434
21
30.512133
0
LINE
8
Layer 1
10
18.912434
20
30.512133
11
19.796326
21
30.881327
0
LINE
8
Layer 1
10
19.796326
20
30.881327
11
19.132837
21
31.572235
0
LINE
8
Layer 1
10
19.132837
20
31.572235
11
20.064929
21
31.351385
0
LINE
8
Layer 1
10
20.064929
20
31.351385
11
19.934261
21
32.300328
0
LINE
8
Layer 1
10
19.934261
20
32.300328
11
20.558525
21
31.573784
0
LINE
8
Layer 1
10
20.558525
20
31.573784
11
21.010588
21
32.418302
0
LINE
8
Layer 1
10
21.010588
20
32.418302
11
21.088577
21
31.463584
0
LINE
8
Layer 1
10
21.088577
20
31.463584
11
21.950699
21
31.881095
0
LINE
8
Layer 1
10
21.950699
20
31.881095
11
21.452623
21
31.062871
0
LINE
8
Layer 1
10
21.452623
20
31.062871
11
22.395502
21
30.893905
0
LINE
8
Layer 1
10
22.395502
20
30.893905
11
21.511610
21
30.524708
0
LINE
8
Layer 1
10
21.511610
20
30.524708
11
22.175099
21
29.833800
0
LINE
8
Layer 1
10
22.175099
20
29.833800
11
22.175100
21
29.833800
 0 
ENDSEC
 0 
EOF